<svg width="20" height="26" viewBox="0 0 20 26" fill="none" xmlns="http://www.w3.org/2000/svg">
<path d="M10 0.5C3.3375 6.1875 0 11.1 0 15.25C0 21.475 4.75 25.5 10 25.5C15.25 25.5 20 21.475 20 15.25C20 11.1 16.6625 6.1875 10 0.5ZM10 23C5.8125 23 2.5 19.7875 2.5 15.25C2.5 12.325 4.9375 8.45 10 3.825C15.0625 8.45 17.5 12.3125 17.5 15.25C17.5 19.7875 14.1875 23 10 23ZM4.7875 15.5C5.25 15.5 5.625 15.825 5.7125 16.275C6.225 19.05 8.5625 20 10.2625 19.8625C10.8 19.8375 11.25 20.2625 11.25 20.8C11.25 21.3 10.85 21.7125 10.35 21.7375C7.6875 21.9 4.575 20.375 3.8625 16.5875C3.84078 16.4535 3.84842 16.3163 3.88491 16.1856C3.92139 16.0548 3.98584 15.9335 4.07381 15.8301C4.16177 15.7267 4.27115 15.6436 4.39437 15.5866C4.5176 15.5296 4.65173 15.5001 4.7875 15.5Z" fill="white"/>
</svg>
