<svg width="13" height="17" viewBox="0 0 13 17" fill="none" xmlns="http://www.w3.org/2000/svg">
<path d="M6.5 16.375C5.39482 15.4323 4.37042 14.3988 3.4375 13.2854C2.0375 11.6133 0.375001 9.123 0.375001 6.75C0.374394 5.53809 0.73332 4.35324 1.40636 3.3454C2.07939 2.33756 3.03629 1.55203 4.15594 1.08823C5.27558 0.624424 6.50766 0.503196 7.69623 0.739884C8.8848 0.976573 9.97644 1.56054 10.833 2.41788C11.4033 2.98563 11.8553 3.66085 12.1629 4.40446C12.4705 5.14806 12.6276 5.94529 12.625 6.75C12.625 9.123 10.9625 11.6133 9.5625 13.2854C8.62958 14.3988 7.60518 15.4323 6.5 16.375ZM6.5 4.125C5.80381 4.125 5.13613 4.40157 4.64385 4.89385C4.15156 5.38613 3.875 6.05381 3.875 6.75C3.875 7.4462 4.15156 8.11388 4.64385 8.60616C5.13613 9.09844 5.80381 9.375 6.5 9.375C7.19619 9.375 7.86387 9.09844 8.35616 8.60616C8.84844 8.11388 9.125 7.4462 9.125 6.75C9.125 6.05381 8.84844 5.38613 8.35616 4.89385C7.86387 4.40157 7.19619 4.125 6.5 4.125Z" fill="white"/>
</svg>
