<svg width="25" height="17" viewBox="0 0 25 17" fill="none" xmlns="http://www.w3.org/2000/svg">
<path d="M4.03643 9.1188C3.35883 9.1188 2.74283 8.9648 2.18843 8.6568C1.64283 8.3488 1.21163 7.9132 0.894834 7.35C0.586834 6.778 0.432834 6.118 0.432834 5.37C0.432834 4.6308 0.591234 3.9796 0.908034 3.4164C1.23363 2.8444 1.67363 2.4088 2.22803 2.1096C2.78243 1.8016 3.40283 1.6476 4.08923 1.6476C4.77564 1.6476 5.39604 1.8016 5.95044 2.1096C6.50484 2.4088 6.94044 2.84 7.25723 3.4032C7.58283 3.9664 7.74563 4.622 7.74563 5.37C7.74563 6.118 7.57843 6.778 7.24404 7.35C6.91843 7.9132 6.47404 8.3488 5.91084 8.6568C5.34764 8.9648 4.72283 9.1188 4.03643 9.1188ZM4.03643 8.0628C4.46763 8.0628 4.87243 7.9616 5.25083 7.7592C5.62924 7.5568 5.93284 7.2532 6.16164 6.8484C6.39923 6.4436 6.51803 5.9508 6.51803 5.37C6.51803 4.7892 6.40363 4.2964 6.17483 3.8916C5.94603 3.4868 5.64684 3.1876 5.27724 2.994C4.90764 2.7916 4.50723 2.6904 4.07603 2.6904C3.63603 2.6904 3.23123 2.7916 2.86163 2.994C2.50083 3.1876 2.21043 3.4868 1.99043 3.8916C1.77043 4.2964 1.66043 4.7892 1.66043 5.37C1.66043 5.9596 1.76603 6.4568 1.97723 6.8616C2.19723 7.2664 2.48763 7.57 2.84843 7.7724C3.20923 7.966 3.60523 8.0628 4.03643 8.0628ZM9.65059 8.322C9.65059 6.826 9.98793 5.484 10.6626 4.296C11.3373 3.09333 12.2539 2.15467 13.4126 1.48C14.5859 0.805333 15.8839 0.467999 17.3066 0.467999C18.9786 0.467999 20.4379 0.871333 21.6846 1.678C22.9313 2.48467 23.8406 3.62867 24.4126 5.11H22.0146C21.5893 4.186 20.9733 3.47467 20.1666 2.976C19.3746 2.47733 18.4213 2.228 17.3066 2.228C16.2359 2.228 15.2753 2.47733 14.4246 2.976C13.5739 3.47467 12.9066 4.186 12.4226 5.11C11.9386 6.01933 11.6966 7.09 11.6966 8.322C11.6966 9.53933 11.9386 10.61 12.4226 11.534C12.9066 12.4433 13.5739 13.1473 14.4246 13.646C15.2753 14.1447 16.2359 14.394 17.3066 14.394C18.4213 14.394 19.3746 14.152 20.1666 13.668C20.9733 13.1693 21.5893 12.458 22.0146 11.534H24.4126C23.8406 13.0007 22.9313 14.1373 21.6846 14.944C20.4379 15.736 18.9786 16.132 17.3066 16.132C15.8839 16.132 14.5859 15.802 13.4126 15.142C12.2539 14.4673 11.3373 13.536 10.6626 12.348C9.98793 11.16 9.65059 9.818 9.65059 8.322Z" fill="#FED55B"/>
</svg>
