<svg width="30" height="30" viewBox="0 0 30 30" fill="none" xmlns="http://www.w3.org/2000/svg">
<path d="M15 26.25C16.4774 26.25 17.9403 25.959 19.3052 25.3936C20.6701 24.8283 21.9103 23.9996 22.955 22.955C23.9996 21.9103 24.8283 20.6701 25.3936 19.3052C25.959 17.9403 26.25 16.4774 26.25 15C26.25 13.5226 25.959 12.0597 25.3936 10.6948C24.8283 9.3299 23.9996 8.08971 22.955 7.04505C21.9103 6.00039 20.6701 5.17172 19.3052 4.60636C17.9403 4.04099 16.4774 3.75 15 3.75C12.0163 3.75 9.15483 4.93526 7.04505 7.04505C4.93526 9.15483 3.75 12.0163 3.75 15C3.75 17.9837 4.93526 20.8452 7.04505 22.955C9.15483 25.0647 12.0163 26.25 15 26.25ZM15 28.125C11.519 28.125 8.18064 26.7422 5.71922 24.2808C3.25781 21.8194 1.875 18.481 1.875 15C1.875 11.519 3.25781 8.18064 5.71922 5.71922C8.18064 3.25781 11.519 1.875 15 1.875C18.481 1.875 21.8194 3.25781 24.2808 5.71922C26.7422 8.18064 28.125 11.519 28.125 15C28.125 18.481 26.7422 21.8194 24.2808 24.2808C21.8194 26.7422 18.481 28.125 15 28.125Z" fill="white"/>
<path d="M5.625 15C5.625 12.5136 6.61272 10.129 8.37087 8.37087C10.129 6.61272 12.5136 5.625 15 5.625C17.4864 5.625 19.871 6.61272 21.6291 8.37087C23.3873 10.129 24.375 12.5136 24.375 15C24.375 15.2486 24.2762 15.4871 24.1004 15.6629C23.9246 15.8387 23.6861 15.9375 23.4375 15.9375C23.1889 15.9375 22.9504 15.8387 22.7746 15.6629C22.5988 15.4871 22.5 15.2486 22.5 15C22.5 13.0109 21.7098 11.1032 20.3033 9.6967C18.8968 8.29018 16.9891 7.5 15 7.5C13.0109 7.5 11.1032 8.29018 9.6967 9.6967C8.29018 11.1032 7.5 13.0109 7.5 15C7.5 15.2486 7.40123 15.4871 7.22541 15.6629C7.0496 15.8387 6.81114 15.9375 6.5625 15.9375C6.31386 15.9375 6.0754 15.8387 5.89959 15.6629C5.72377 15.4871 5.625 15.2486 5.625 15Z" fill="white"/>
<path d="M16.7119 18.3937C17.238 18.7979 17.6043 19.375 17.7461 20.0232C17.8878 20.6713 17.7959 21.3486 17.4866 21.9355C17.1772 22.5224 16.6704 22.9811 16.0556 23.2304C15.4408 23.4798 14.7576 23.5038 14.1269 23.2981C13.4961 23.0925 12.9583 22.6706 12.6086 22.1068C12.2588 21.543 12.1196 20.8738 12.2156 20.2173C12.3116 19.5609 12.6365 18.9595 13.133 18.5194C13.6295 18.0793 14.2655 17.829 14.9288 17.8125L16.7156 12.3112C16.7527 12.1929 16.8128 12.0831 16.8925 11.9882C16.9723 11.8933 17.07 11.8151 17.1802 11.7583C17.2903 11.7014 17.4107 11.6669 17.5342 11.6568C17.6578 11.6468 17.7821 11.6613 17.9 11.6996C18.0179 11.7379 18.1271 11.7993 18.2211 11.88C18.3152 11.9608 18.3923 12.0594 18.448 12.1702C18.5036 12.2809 18.5368 12.4016 18.5455 12.5253C18.5542 12.649 18.5383 12.7731 18.4988 12.8906L16.7119 18.3919V18.3937ZM14.7094 21.5175C14.8266 21.5557 14.9502 21.5704 15.073 21.5608C15.1959 21.5512 15.3157 21.5175 15.4256 21.4616C15.5355 21.4057 15.6332 21.3287 15.7133 21.235C15.7935 21.1414 15.8543 21.0328 15.8925 20.9156C15.9307 20.7984 15.9454 20.6748 15.9358 20.552C15.9262 20.4291 15.8925 20.3093 15.8366 20.1994C15.7807 20.0895 15.7037 19.9918 15.61 19.9117C15.5164 19.8315 15.4078 19.7707 15.2906 19.7325C15.0539 19.6554 14.7963 19.6755 14.5744 19.7884C14.3525 19.9013 14.1846 20.0977 14.1075 20.3344C14.0304 20.5711 14.0505 20.8287 14.1634 21.0506C14.2763 21.2725 14.4727 21.4404 14.7094 21.5175Z" fill="white"/>
</svg>
