<svg width="21" height="21" viewBox="0 0 21 21" fill="none" xmlns="http://www.w3.org/2000/svg">
<path d="M2.625 3.5C2.625 3.26794 2.71719 3.04538 2.88128 2.88128C3.04538 2.71719 3.26794 2.625 3.5 2.625H6.125C6.35706 2.625 6.57962 2.71719 6.74372 2.88128C6.90781 3.04538 7 3.26794 7 3.5V6.125C7 6.35706 6.90781 6.57962 6.74372 6.74372C6.57962 6.90781 6.35706 7 6.125 7H3.5C3.26794 7 3.04538 6.90781 2.88128 6.74372C2.71719 6.57962 2.625 6.35706 2.625 6.125V3.5ZM2.625 9.1875C2.625 8.95544 2.71719 8.73288 2.88128 8.56878C3.04538 8.40469 3.26794 8.3125 3.5 8.3125H6.125C6.35706 8.3125 6.57962 8.40469 6.74372 8.56878C6.90781 8.73288 7 8.95544 7 9.1875V11.8125C7 12.0446 6.90781 12.2671 6.74372 12.4312C6.57962 12.5953 6.35706 12.6875 6.125 12.6875H3.5C3.26794 12.6875 3.04538 12.5953 2.88128 12.4312C2.71719 12.2671 2.625 12.0446 2.625 11.8125V9.1875ZM2.625 14.875C2.625 14.6429 2.71719 14.4204 2.88128 14.2563C3.04538 14.0922 3.26794 14 3.5 14H6.125C6.35706 14 6.57962 14.0922 6.74372 14.2563C6.90781 14.4204 7 14.6429 7 14.875V17.5C7 17.7321 6.90781 17.9546 6.74372 18.1187C6.57962 18.2828 6.35706 18.375 6.125 18.375H3.5C3.26794 18.375 3.04538 18.2828 2.88128 18.1187C2.71719 17.9546 2.625 17.7321 2.625 17.5V14.875ZM8.3125 3.5C8.3125 3.26794 8.40469 3.04538 8.56878 2.88128C8.73288 2.71719 8.95544 2.625 9.1875 2.625H11.8125C12.0446 2.625 12.2671 2.71719 12.4312 2.88128C12.5953 3.04538 12.6875 3.26794 12.6875 3.5V6.125C12.6875 6.35706 12.5953 6.57962 12.4312 6.74372C12.2671 6.90781 12.0446 7 11.8125 7H9.1875C8.95544 7 8.73288 6.90781 8.56878 6.74372C8.40469 6.57962 8.3125 6.35706 8.3125 6.125V3.5ZM8.3125 9.1875C8.3125 8.95544 8.40469 8.73288 8.56878 8.56878C8.73288 8.40469 8.95544 8.3125 9.1875 8.3125H11.8125C12.0446 8.3125 12.2671 8.40469 12.4312 8.56878C12.5953 8.73288 12.6875 8.95544 12.6875 9.1875V11.8125C12.6875 12.0446 12.5953 12.2671 12.4312 12.4312C12.2671 12.5953 12.0446 12.6875 11.8125 12.6875H9.1875C8.95544 12.6875 8.73288 12.5953 8.56878 12.4312C8.40469 12.2671 8.3125 12.0446 8.3125 11.8125V9.1875ZM8.3125 14.875C8.3125 14.6429 8.40469 14.4204 8.56878 14.2563C8.73288 14.0922 8.95544 14 9.1875 14H11.8125C12.0446 14 12.2671 14.0922 12.4312 14.2563C12.5953 14.4204 12.6875 14.6429 12.6875 14.875V17.5C12.6875 17.7321 12.5953 17.9546 12.4312 18.1187C12.2671 18.2828 12.0446 18.375 11.8125 18.375H9.1875C8.95544 18.375 8.73288 18.2828 8.56878 18.1187C8.40469 17.9546 8.3125 17.7321 8.3125 17.5V14.875ZM14 3.5C14 3.26794 14.0922 3.04538 14.2563 2.88128C14.4204 2.71719 14.6429 2.625 14.875 2.625H17.5C17.7321 2.625 17.9546 2.71719 18.1187 2.88128C18.2828 3.04538 18.375 3.26794 18.375 3.5V6.125C18.375 6.35706 18.2828 6.57962 18.1187 6.74372C17.9546 6.90781 17.7321 7 17.5 7H14.875C14.6429 7 14.4204 6.90781 14.2563 6.74372C14.0922 6.57962 14 6.35706 14 6.125V3.5ZM14 9.1875C14 8.95544 14.0922 8.73288 14.2563 8.56878C14.4204 8.40469 14.6429 8.3125 14.875 8.3125H17.5C17.7321 8.3125 17.9546 8.40469 18.1187 8.56878C18.2828 8.73288 18.375 8.95544 18.375 9.1875V11.8125C18.375 12.0446 18.2828 12.2671 18.1187 12.4312C17.9546 12.5953 17.7321 12.6875 17.5 12.6875H14.875C14.6429 12.6875 14.4204 12.5953 14.2563 12.4312C14.0922 12.2671 14 12.0446 14 11.8125V9.1875ZM14 14.875C14 14.6429 14.0922 14.4204 14.2563 14.2563C14.4204 14.0922 14.6429 14 14.875 14H17.5C17.7321 14 17.9546 14.0922 18.1187 14.2563C18.2828 14.4204 18.375 14.6429 18.375 14.875V17.5C18.375 17.7321 18.2828 17.9546 18.1187 18.1187C17.9546 18.2828 17.7321 18.375 17.5 18.375H14.875C14.6429 18.375 14.4204 18.2828 14.2563 18.1187C14.0922 17.9546 14 17.7321 14 17.5V14.875Z" fill="white"/>
</svg>
